<?xml version="1.0" encoding="UTF-8"?>
<svg width="752pt" height="752pt" version="1.1" viewBox="0 0 752 752" xmlns="http://www.w3.org/2000/svg">
 <g>
  <path d="m246.46 447.23h17.746c-9.1602 5.0156-15.434 14.664-15.434 25.82v7.4297c0 16.273 13.234 29.508 29.504 29.508h171.82c16.27 0 29.504-13.234 29.504-29.508l-0.007812-7.4297c0-13.617-9.2734-25.109-21.828-28.496 4.3516-5.1406 6.9805-11.789 6.9805-19.039v-7.4258c0-13.812-9.5469-25.438-22.383-28.633 3.3203-3.957 5.6328-8.7969 6.5195-14.109l31.969-31.438c1.6602-1.6328 2.168-4.1094 1.2891-6.2656-0.88672-2.1602-2.9805-3.5664-5.3125-3.5664l-51.809 0.011719c-1.7695-0.30859-3.4531-0.46094-5.1367-0.46094l-111.41-0.003906c-9.2969 0-17.5 4.4023-22.91 11.141h-39.105c-16.27 0-29.504 13.234-29.504 29.508v43.445c0 16.273 13.234 29.512 29.504 29.512zm39.398-57.734c-12.695 3.2266-22.113 14.711-22.215 28.379l-17.387-0.15234 0.20312-43.648h32.824c0.69531 5.8125 2.9883 11.145 6.5742 15.422z"/>
  <path d="m499.61 244.5h-64.441l8.582-51.242c0.28125-1.6641-0.19141-3.3672-1.2773-4.6602-1.0938-1.2812-2.6953-2.0273-4.3828-2.0273h-144.84c-1.6875 0-3.2891 0.74609-4.3828 2.0312-1.0859 1.2891-1.5586 2.9922-1.2773 4.6602l8.582 51.242-12.141-0.003906c-3.1719 0-5.7422 2.5664-5.7422 5.7422v29.711c0 3.1719 2.5664 5.7422 5.7422 5.7422h19.043l4.75 28.371c0.46484 2.7617 2.8594 4.793 5.6602 4.793h104.36c2.8047 0 5.1953-2.0234 5.6602-4.793l4.7539-28.371h65.602v238.55l-35.355-0.003906c-0.15234 0-0.29687 0.003906-0.44141 0.015624h-235.38c-3.1719 0-5.7422 2.5664-5.7422 5.7422v29.695c0.003906 3.1719 2.5703 5.7383 5.7422 5.7383h276.91c19.547 0 35.445-15.902 35.445-35.453l0.003906-250.03c0-19.547-15.898-35.449-35.445-35.449zm-187.86-46.449 2.4609 15.27c0.45312 2.8203 2.8945 4.8281 5.6602 4.8281 0.30078 0 0.60938-0.023438 0.91797-0.074219 3.1289-0.50391 5.2578-3.4531 4.7539-6.582l-2.168-13.441h107.92l-7.7812 46.449h-115.71l-7.7812-46.449zm101.24 109.32h-94.645l-3.6289-21.684h101.91z"/>
  <path d="m323.11 238.26c0.30078 0 0.60547-0.023438 0.91406-0.074219 3.1328-0.5 5.2656-3.4492 4.7578-6.5742l-0.5-3.1094c-0.50391-3.1328-3.4414-5.293-6.5742-4.7578-3.1328 0.49609-5.2617 3.4414-4.7578 6.5703l0.5 3.1094c0.45312 2.8281 2.8906 4.8359 5.6602 4.8359z"/>
 </g>
</svg>
